<svg xmlns="http://www.w3.org/2000/svg" width="128" height="128" viewBox="0 0 128 128" role="img" aria-label="WaveVis meshed wave icon">
  <defs>
    <filter id="d" x="-35%" y="-35%" width="170%" height="170%" color-interpolation-filters="sRGB">
      <feDropShadow dx="0" dy="10" stdDeviation="6" flood-color="#2b211d" flood-opacity=".16"/>
      <feDropShadow dx="0" dy="1" stdDeviation="1" flood-color="#fffaf4" flood-opacity=".52"/>
    </filter>
    <linearGradient id="wave" x1="18" y1="26" x2="112" y2="108" gradientUnits="userSpaceOnUse">
      <stop stop-color="#9fbbb4"/>
      <stop offset=".52" stop-color="#5f8f8e"/>
      <stop offset="1" stop-color="#315f69"/>
    </linearGradient>
    <linearGradient id="lip" x1="24" y1="70" x2="112" y2="110" gradientUnits="userSpaceOnUse">
      <stop stop-color="#f0b3ad"/>
      <stop offset=".56" stop-color="#d18479"/>
      <stop offset="1" stop-color="#8f5a52"/>
    </linearGradient>
    <linearGradient id="mesh" x1="22" y1="32" x2="104" y2="104" gradientUnits="userSpaceOnUse">
      <stop stop-color="#fff8ef"/>
      <stop offset="1" stop-color="#e7d7c4"/>
    </linearGradient>
    <linearGradient id="ink" x1="20" y1="28" x2="110" y2="112" gradientUnits="userSpaceOnUse">
      <stop stop-color="#645d52"/>
      <stop offset="1" stop-color="#383631"/>
    </linearGradient>
    <clipPath id="clip">
      <path d="M18 83c10-22 29-36 48-35 15 0 25 8 27 21 2 12-8 21-23 20 10 12 28 15 43 2-5 15-18 25-37 27-24 3-49-11-58-35z"/>
    </clipPath>
  </defs>
  <g filter="url(#d)" transform="rotate(-5 64 64)">
    <path d="M24 92c18 13 49 19 82 3" fill="none" stroke="url(#ink)" stroke-width="7" stroke-linecap="round" opacity=".46"/>
    <path d="M18 83c10-22 29-36 48-35 15 0 25 8 27 21 2 12-8 21-23 20 10 12 28 15 43 2-5 15-18 25-37 27-24 3-49-11-58-35z" fill="url(#wave)"/>
    <path d="M29 91c15 14 46 20 76 4-14 17-38 23-61 16-7-2-12-6-15-20z" fill="url(#lip)" opacity=".72"/>
    <g clip-path="url(#clip)" fill="none" stroke-linecap="round" stroke-linejoin="round">
      <path d="M24 82c13-13 28-20 45-20 13 0 21 5 25 14" stroke="url(#mesh)" stroke-width="4.4" opacity=".7"/>
      <path d="M28 95c15-10 31-15 48-14 12 1 22 5 31 12" stroke="url(#mesh)" stroke-width="4.4" opacity=".62"/>
      <path d="M38 106c16-8 35-11 56-7" stroke="url(#mesh)" stroke-width="4.4" opacity=".55"/>
      <path d="M35 61c5 15 5 31 0 48" stroke="url(#mesh)" stroke-width="4" opacity=".62"/>
      <path d="M52 51c6 19 6 41 0 63" stroke="url(#mesh)" stroke-width="4" opacity=".66"/>
      <path d="M70 51c5 20 3 42-7 64" stroke="url(#mesh)" stroke-width="4" opacity=".62"/>
      <path d="M87 61c-1 15-8 28-21 39" stroke="url(#mesh)" stroke-width="4" opacity=".58"/>
      <path d="M103 83c-10 12-22 20-36 25" stroke="url(#mesh)" stroke-width="4" opacity=".5"/>
    </g>
    <path d="M20 83c10-22 29-36 48-35 15 0 25 8 27 21 2 12-8 21-23 20" fill="none" stroke="#fffaf2" stroke-width="4" stroke-linecap="round" opacity=".34"/>
  </g>
</svg>
